<svg xmlns="http://www.w3.org/2000/svg" width="1071.75" height="1400" viewBox="0 0 1071.75 1400">
  <rect x="0" y="0" width="1071.75" height="1400" fill="#ffffff" />
  <text x="24" y="40" font-family="ui-sans-serif, -apple-system, Segoe UI, Helvetica, Arial, sans-serif" font-size="16" font-weight="bold" fill="#111111" text-anchor="start">c001-demo-6</text>
  <text x="24" y="60" font-family="ui-sans-serif, -apple-system, Segoe UI, Helvetica, Arial, sans-serif" font-size="12" fill="#555555" text-anchor="start">utilization 75.3%   |   used length 150   |   strip width 200   |   6 parts placed</text>
  <rect x="24" y="76" width="1023.75" height="1300" fill="none" stroke="#888888" stroke-width="1" />
  <path d="M 24 1051 L 674 1051 L 674 726 L 349 726 L 349 401 L 24 401 Z" fill="#4e79a7" fill-rule="evenodd" fill-opacity="0.6" stroke="#222222" stroke-width="1" stroke-linejoin="round" data-part-id="p001" />
  <path d="M 999 76 L 349 76 L 349 401 L 674 401 L 674 726 L 999 726 Z" fill="#f28e2b" fill-rule="evenodd" fill-opacity="0.6" stroke="#222222" stroke-width="1" stroke-linejoin="round" data-part-id="p002" />
  <path d="M 349 726 L 674 726 L 674 401 L 349 401 Z" fill="#e15759" fill-rule="evenodd" fill-opacity="0.6" stroke="#222222" stroke-width="1" stroke-linejoin="round" data-part-id="p003" />
  <path d="M 674 1096.5 L 949.772 1372.272 L 949.772 820.728 Z" fill="#76b7b2" fill-rule="evenodd" fill-opacity="0.6" stroke="#222222" stroke-width="1" stroke-linejoin="round" data-part-id="p004" />
  <path d="M 24 1376 L 544 1376 L 414 1116 L 154 1116 Z" fill="#59a14f" fill-rule="evenodd" fill-opacity="0.6" stroke="#222222" stroke-width="1" stroke-linejoin="round" data-part-id="p005" />
  <path d="M 89 336 L 284 336 L 284 141 L 89 141 Z" fill="#edc948" fill-rule="evenodd" fill-opacity="0.6" stroke="#222222" stroke-width="1" stroke-linejoin="round" data-part-id="p006" />
  <line x1="999" y1="76" x2="999" y2="1376" stroke="#c0392b" stroke-width="1" stroke-dasharray="6 4" />
</svg>
